# Blender v2.80 (sub 75) OBJ File: ''
# www.blender.org
o Cube
v -0.500000 2.000000 -0.500000
v -0.500000 1.000000 -0.500000
v 0.500000 2.000000 -0.500000
v 0.500000 1.000000 -0.500000
v -0.500000 2.000000 0.500000
v -0.500000 1.000000 0.500000
v 0.500000 2.000000 0.500000
v 0.500000 1.000000 0.500000
v -0.500000 1.000000 -0.250000
v 0.500000 1.000000 -0.250000
v -0.500000 1.000000 0.250000
v 0.500000 1.000000 0.250000
v -0.500000 -0.500000 -0.250000
v 0.500000 -0.500000 -0.250000
v -0.500000 -0.500000 0.250000
v 0.500000 -0.500000 0.250000
v -0.500000 -0.500000 0.250000
v 0.500000 -0.500000 0.250000
v -1.000000 -0.500000 -0.250000
v -1.000000 1.000000 -0.250000
v -1.000000 -0.500000 0.250000
v -1.000000 1.000000 0.250000
v -0.500000 -0.500000 -0.250000
v -0.500000 1.000000 -0.250000
v -0.500000 -0.500000 0.250000
v -0.500000 1.000000 0.250000
v -0.500000 -0.500000 0.250000
v -0.500000 1.000000 0.250000
v 0.500000 -0.500000 -0.250000
v 0.500000 1.000000 -0.250000
v 0.500000 -0.500000 0.250000
v 0.500000 1.000000 0.250000
v 1.000000 -0.500000 -0.250000
v 1.000000 1.000000 -0.250000
v 1.000000 -0.500000 0.250000
v 1.000000 1.000000 0.250000
v 1.000000 -0.500000 0.250000
v 1.000000 1.000000 0.250000
v 0.000000 -2.000000 -0.250000
v 0.000000 -0.500000 -0.250000
v -0.000000 -2.000000 0.250000
v -0.000000 -0.500000 0.250000
v 0.500000 -2.000000 -0.250000
v 0.500000 -0.500000 -0.250000
v 0.500000 -2.000000 0.250000
v 0.500000 -0.500000 0.250000
v 0.500000 -2.000000 0.250000
v 0.500000 -0.500000 0.250000
v -0.500000 -2.000000 -0.250000
v -0.500000 -0.500000 -0.250000
v -0.500000 -2.000000 0.250000
v -0.500000 -0.500000 0.250000
v -0.000000 -2.000000 -0.250000
v 0.000000 -0.500000 -0.250000
v -0.000000 -2.000000 0.250000
v -0.000000 -0.500000 0.250000
v -0.000000 -2.000000 0.250000
v -0.000000 -0.500000 0.250000
vn 0.0000 1.0000 0.0000
vn 1.0000 0.0000 0.0000
vn -0.0000 0.0000 1.0000
vn 0.0000 -1.0000 -0.0000
vn 0.0000 0.0000 -1.0000
vn -1.0000 0.0000 -0.0000
s off
f 1//1 5//1 7//1 3//1
f 4//2 3//2 7//2 8//2
f 8//3 7//3 5//3 6//3
f 6//4 2//4 4//4 8//4
f 2//5 1//5 3//5 4//5
f 6//6 5//6 1//6 2//6
f 12//3 11//3 15//3 16//3
f 11//1 12//1 10//1 9//1
f 17//4 13//4 14//4 18//4
f 9//5 10//5 14//5 13//5
f 11//6 9//6 13//6 15//6
f 10//2 12//2 16//2 14//2
f 22//3 21//3 25//3 26//3
f 21//6 22//6 20//6 19//6
f 27//2 23//2 24//2 28//2
f 19//5 20//5 24//5 23//5
f 21//4 19//4 23//4 25//4
f 20//1 22//1 26//1 24//1
f 32//3 31//3 35//3 36//3
f 31//6 32//6 30//6 29//6
f 37//2 33//2 34//2 38//2
f 29//5 30//5 34//5 33//5
f 31//4 29//4 33//4 35//4
f 30//1 32//1 36//1 34//1
f 42//3 41//3 45//3 46//3
f 41//6 42//6 40//6 39//6
f 47//2 43//2 44//2 48//2
f 39//5 40//5 44//5 43//5
f 41//4 39//4 43//4 45//4
f 40//1 42//1 46//1 44//1
f 52//3 51//3 55//3 56//3
f 51//6 52//6 50//6 49//6
f 57//2 53//2 54//2 58//2
f 49//5 50//5 54//5 53//5
f 51//4 49//4 53//4 55//4
f 50//1 52//1 56//1 54//1
